<svg xmlns="http://www.w3.org/2000/svg" width="68" height="129"><g id="surface1"><path style="stroke:none;fill-rule:nonzero;fill:#ffcab9;fill-opacity:1" d="M61.586 36.086a5.281 5.281 0 0 0-6.973 2.68l-7.129 16.5h-1.687V15.41a5.286 5.286 0 0 0-10.57 0V7.996a5.284 5.284 0 1 0-10.567 0v7.414a5.286 5.286 0 0 0-10.57 0v12.504a5.283 5.283 0 1 0-10.567 0v37.91c0 6.028 3.786 11.168 9.11 13.184v44.703H43.66V79.008a14.13 14.13 0 0 0 8.395-8.754l.035.004 5.05-11.172 7.13-16.027a5.283 5.283 0 0 0-2.684-6.973Zm0 0"/><path style="stroke:none;fill-rule:nonzero;fill:#fabba7;fill-opacity:1" d="M21.71 15.41c0-1.418.563-2.707 1.477-3.656a5.303 5.303 0 0 0-1.476-1.078Zm0 0"/><path style="stroke:none;fill-rule:nonzero;fill:#000;fill-opacity:1" d="M13.531 76.64C9.062 74.946 6.06 70.603 6.06 65.825v-6.683c0-3.278-5.07-3.278-5.07 0v6.683c0 6.27 3.597 12.024 9.109 14.832v44.055a2.534 2.534 0 0 0 2.535 2.531 2.534 2.534 0 0 0 2.535-2.531V79.008c0-1.051-.652-1.996-1.637-2.367Zm0 0"/><path style="stroke:none;fill-rule:nonzero;fill:#000;fill-opacity:1" d="M66.738 38.11a7.776 7.776 0 0 0-4.12-4.34c-3.895-1.73-8.626.152-10.333 3.992l-3.957 9.16V15.41c.11-5.351-5.617-9.285-10.566-7.32-.602-10.512-15.211-10.504-15.637 0-4.95-1.965-10.672 1.969-10.566 7.32v5.184C6.613 18.629.883 22.559.992 27.914V46.47c0 3.277 5.067 3.277 5.067 0V27.914c.14-3.648 5.363-3.64 5.5 0v17.621c0 3.278 5.066 3.278 5.066 0V15.41c.137-3.637 5.36-3.648 5.5 0v24.645c0 3.277 5.07 3.277 5.07 0V7.996c0-1.516 1.23-2.75 2.75-2.75a2.754 2.754 0 0 1 2.75 2.75v32.059c0 3.277 5.067 3.277 5.067 0V15.41a2.754 2.754 0 0 1 2.75-2.75 2.754 2.754 0 0 1 2.75 2.75v37.383c-7.48.672-13.332 6.957-13.332 14.484 0 3.278 5.066 3.278 5.066 0 0-7.105 6.434-9.726 12.492-9.476a2.538 2.538 0 0 0 2.325-1.528l7.117-16.476c.824-1.469 2.035-1.934 3.629-1.395 1.468.825 1.933 2.032 1.394 3.63a12688.14 12688.14 0 0 1-12.25 27.386c-1.168 3.32-3.762 6.02-6.941 7.223a2.532 2.532 0 0 0-1.637 2.367v44.703a2.534 2.534 0 0 0 2.535 2.531 2.534 2.534 0 0 0 2.535-2.531V80.652c3.766-1.937 6.782-5.359 8.25-9.445a4946.044 4946.044 0 0 0 12.14-27.117 7.764 7.764 0 0 0 .153-5.98Zm0 0"/></g></svg>