<svg xmlns="http://www.w3.org/2000/svg" width="68" height="129" viewBox="0 0 68 151"><g id="surface1"><path style="stroke:none;fill-rule:nonzero;fill:#ffcab9;fill-opacity:1" d="M53.016 147.629V67.336c6.46-2.434 11.058-8.645 11.058-15.93V22.441H4.281v28.965c0 7.285 4.598 13.496 11.059 15.93v80.293Zm0 0"/><path style="stroke:none;fill-rule:nonzero;fill:#fabba7;fill-opacity:1" d="M10.695 29.102c-3.543 0-6.414-2.856-6.414-6.383v-6.086c0-3.528 2.871-6.383 6.414-6.383 3.543 0 6.418 2.855 6.418 6.383v6.086c0 3.527-2.875 6.383-6.418 6.383ZM23.527 29.102c-3.543 0-6.414-2.856-6.414-6.383V9.695c0-3.527 2.871-6.386 6.414-6.386 3.543 0 6.418 2.859 6.418 6.386V22.72c0 3.527-2.875 6.383-6.418 6.383ZM36.36 29.102c-3.544 0-6.415-2.856-6.415-6.383V9.695c0-3.527 2.871-6.386 6.414-6.386 3.543 0 6.418 2.859 6.418 6.386V22.72c0 3.527-2.875 6.383-6.418 6.383ZM49.191 29.102c-3.543 0-6.414-2.856-6.414-6.383V9.695c0-3.527 2.871-6.386 6.414-6.386 3.547 0 6.418 2.859 6.418 6.386V22.72c0 3.527-2.875 6.383-6.418 6.383Zm0 0"/><path style="stroke:none;fill-rule:nonzero;fill:#ffcab9;fill-opacity:1" d="M64.074 51.406V22.72c0-3.524-2.87-6.383-6.414-6.383h-21.3c-3.544 0-6.415 2.86-6.415 6.383 0 3.527 2.871 6.383 6.414 6.383h14.883v9.554c-5.941 1.094-11.824 6.672-11.824 14.508"/><path style="stroke:none;fill-rule:nonzero;fill:#000;fill-opacity:1" d="M58.688 13.332v-3.64c.027-8.188-9.954-12.477-15.91-6.954-3.465-3.293-9.372-3.293-12.833 0-5.379-4.996-14.363-2.02-15.73 5.125C8.19 5.332 1.066 10.09 1.203 16.633v34.773c0 7.574 4.367 14.528 11.059 17.918l1.09 77.055a3.07 3.07 0 0 0 3.078 3.062 3.07 3.07 0 0 0 3.078-3.062l-1.09-79.043c0-1.273-.793-2.41-1.988-2.863-5.426-2.043-9.075-7.293-9.075-13.067V31.56c3.227 1.285 7.329.441 9.758-1.887 3.465 3.297 9.367 3.297 12.832 0a9.472 9.472 0 0 0 6.414 2.492h11.805v4.172C42.06 38.555 36.34 44.668 36.34 53.164a3.07 3.07 0 0 0 3.078 3.063 3.07 3.07 0 0 0 3.078-3.063c0-6.355 4.797-10.668 9.309-11.496a3.068 3.068 0 0 0 2.515-3.012v-9.554a3.07 3.07 0 0 0-3.078-3.063H36.36a3.33 3.33 0 0 1-3.336-3.32 3.33 3.33 0 0 1 3.336-3.32H57.66c1.84 0 3.34 1.488 3.34 3.32v28.687c0 5.774-3.648 11.024-9.074 13.067a3.066 3.066 0 0 0-1.989 2.863l1.09 79.043a3.07 3.07 0 0 0 3.078 3.062 3.07 3.07 0 0 0 3.079-3.062l-1.09-77.055c6.691-3.39 11.058-10.344 11.058-17.918V22.72c0-4.864-3.71-8.88-8.465-9.387Zm-9.497-6.96c1.844 0 3.34 1.491 3.34 3.32v3.581h-6.676V9.691c0-1.828 1.497-3.32 3.336-3.32ZM10.695 26.038c-1.84 0-3.34-1.488-3.34-3.32v-6.086c.168-4.403 6.512-4.399 6.68 0v6.086c0 1.832-1.496 3.32-3.34 3.32Zm12.832 0c-1.84 0-3.34-1.488-3.34-3.32V9.69c.172-4.398 6.512-4.398 6.68 0V22.72c0 1.832-1.496 3.32-3.34 3.32Zm9.496-12.16V9.695c.168-4.402 6.508-4.398 6.676 0v3.578h-3.34a9.465 9.465 0 0 0-3.336.606Zm0 0"/></g></svg>