<svg xmlns="http://www.w3.org/2000/svg" width="68" height="129" viewBox="0 0 68 155"><g id="surface1"><path style="stroke:none;fill-rule:nonzero;fill:#ffcab9;fill-opacity:1" d="M52.758 150.867V96.605c6.578-2.48 11.262-8.804 11.262-16.222v-29.5H3.137v29.5c0 7.418 4.68 13.742 11.258 16.222v54.262Zm0 0"/><path style="stroke:none;fill-rule:nonzero;fill:#fabba7;fill-opacity:1" d="M38.3 54.203c-3.546.652-6.952-1.683-7.609-5.21l-7.078-38.196c-.656-3.531 1.692-6.918 5.239-7.57 3.546-.653 6.957 1.683 7.609 5.214l7.078 38.192c.656 3.531-1.691 6.922-5.238 7.57Zm0 0"/><path style="stroke:none;fill-rule:nonzero;fill:#fabba7;fill-opacity:1" d="M45.879 53.648c-3.469-.98-5.484-4.574-4.5-8.027l10.656-37.36c.985-3.452 4.598-5.46 8.067-4.48 3.472.98 5.488 4.574 4.503 8.028L53.95 49.172c-.984 3.453-4.597 5.457-8.07 4.476ZM9.668 57.668c-3.61 0-6.531-2.91-6.531-6.5v-6.2c0-3.59 2.922-6.5 6.531-6.5 3.61 0 6.531 2.91 6.531 6.5v6.2c0 3.59-2.922 6.5-6.531 6.5ZM22.734 57.668c-3.609 0-6.535-2.91-6.535-6.5V37.902c0-3.59 2.926-6.5 6.535-6.5 3.61 0 6.532 2.91 6.532 6.5v13.266c0 3.59-2.922 6.5-6.532 6.5Zm0 0"/><path style="stroke:none;fill-rule:nonzero;fill:#ffcab9;fill-opacity:1" d="M64.02 80.383V51.168c0-3.59-2.926-6.5-6.536-6.5H35.801c-3.61 0-6.535 2.91-6.535 6.5s2.925 6.5 6.535 6.5h15.152v9.73c-6.05 1.118-12.039 6.797-12.039 14.774"/><path style="stroke:none;fill-rule:nonzero;fill:#000;fill-opacity:1" d="M52.758 126.066a3.127 3.127 0 0 0-3.133 3.118v21.683c.14 4.13 6.121 4.125 6.266 0v-21.683a3.127 3.127 0 0 0-3.133-3.118ZM60.957.781C55.918-.64 50.434 2.45 49.02 7.411l-5.797 20.323-3.68-19.859C38.578 2.66 33.523-.801 28.285.16c-5.242.961-8.719 5.988-7.754 11.203l3.145 16.969c-4.785-.46-9.492 3.004-10.426 7.711C7.117 33.461-.14 38.305.004 44.973v35.41c0 7.715 4.445 14.793 11.258 18.246v52.238a3.128 3.128 0 0 0 3.136 3.121 3.127 3.127 0 0 0 3.133-3.12V96.604a3.125 3.125 0 0 0-2.027-2.918C9.98 91.61 6.27 86.263 6.27 80.383V60.172c3.285 1.308 7.457.45 9.93-1.922 3.527 3.355 9.538 3.355 13.066 0a9.654 9.654 0 0 0 6.535 2.535h12.02v4.25c-6.22 2.262-12.04 8.485-12.04 17.137a3.124 3.124 0 0 0 3.133 3.117 3.124 3.124 0 0 0 3.133-3.117c0-6.469 4.883-10.863 9.476-11.707a3.122 3.122 0 0 0 2.563-3.067v-9.73a3.124 3.124 0 0 0-3.133-3.117H35.801c-4.5-.164-4.512-6.594 0-6.766h21.683c1.875 0 3.403 1.52 3.403 3.383v29.215c0 5.879-3.715 11.226-9.239 13.305a3.121 3.121 0 0 0-2.023 2.917v16.508a3.124 3.124 0 0 0 3.133 3.117 3.124 3.124 0 0 0 3.133-3.117V98.63c6.816-3.453 11.261-10.531 11.261-18.246V51.168c0-4.676-3.375-8.582-7.824-9.438l8.29-29.07C69.073 7.56 66.085 2.23 60.956.781ZM9.668 54.551a3.393 3.393 0 0 1-3.398-3.383v-6.2c.171-4.48 6.628-4.476 6.796 0v6.2a3.393 3.393 0 0 1-3.398 3.383Zm16.465-3.383c-.168 4.477-6.63 4.484-6.797 0V37.902c.168-4.476 6.625-4.48 6.797 0Zm6.265-9v-4.262c0-1.914-.566-3.699-1.539-5.199l-4.164-22.473a3.389 3.389 0 0 1 2.727-3.941 3.398 3.398 0 0 1 3.957 2.71l6.035 32.548h-3.613a9.63 9.63 0 0 0-3.403.617ZM61.59 10.957l-8.727 30.594h-7.066L55.05 9.109c.75-1.93 2.152-2.707 4.195-2.328a3.382 3.382 0 0 1 2.344 4.176Zm0 0"/></g></svg>