<?xml version="1.0" encoding="UTF-8"?>
<svg xmlns="http://www.w3.org/2000/svg" xmlns:xlink="http://www.w3.org/1999/xlink" width="68px" height="129px" viewBox="0 0 68 129" version="1.1">
<g id="surface1">
<path style=" stroke:none;fill-rule:nonzero;fill:rgb(100%,79.215686%,72.54902%);fill-opacity:1;" d="M 61.585938 36.085938 C 58.921875 34.898438 55.796875 36.101562 54.613281 38.765625 L 47.484375 55.265625 L 45.796875 55.265625 L 45.796875 15.410156 C 45.796875 12.492188 43.429688 10.125 40.511719 10.125 C 37.59375 10.125 35.226562 12.492188 35.226562 15.410156 L 35.226562 7.996094 C 35.226562 5.078125 32.863281 2.710938 29.941406 2.710938 C 27.023438 2.710938 24.660156 5.078125 24.660156 7.996094 L 24.660156 15.410156 C 24.660156 12.492188 22.292969 10.125 19.375 10.125 C 16.457031 10.125 14.089844 12.492188 14.089844 15.410156 L 14.089844 27.914062 C 14.089844 24.996094 11.726562 22.628906 8.808594 22.628906 C 5.890625 22.628906 3.523438 24.992188 3.523438 27.914062 L 3.523438 65.824219 C 3.523438 71.851562 7.308594 76.992188 12.632812 79.007812 L 12.632812 123.710938 L 43.660156 123.710938 L 43.660156 79.007812 C 47.613281 77.511719 50.722656 74.285156 52.054688 70.253906 L 52.089844 70.257812 L 57.140625 59.085938 L 64.269531 43.058594 C 65.453125 40.394531 64.253906 37.269531 61.585938 36.085938 Z M 61.585938 36.085938 "/>
<path style=" stroke:none;fill-rule:nonzero;fill:rgb(98.039216%,73.333333%,65.490196%);fill-opacity:1;" d="M 21.710938 15.410156 C 21.710938 13.992188 22.273438 12.703125 23.1875 11.753906 C 22.761719 11.3125 22.265625 10.949219 21.710938 10.675781 Z M 21.710938 15.410156 "/>
<path style=" stroke:none;fill-rule:nonzero;fill:rgb(0%,0%,0%);fill-opacity:1;" d="M 13.53125 76.640625 C 9.0625 74.945312 6.058594 70.601562 6.058594 65.824219 L 6.058594 59.140625 C 6.058594 55.863281 0.988281 55.863281 0.988281 59.140625 L 0.988281 65.824219 C 0.988281 72.09375 4.585938 77.847656 10.097656 80.65625 L 10.097656 124.710938 C 10.097656 126.109375 11.234375 127.242188 12.632812 127.242188 C 14.03125 127.242188 15.167969 126.109375 15.167969 124.710938 L 15.167969 79.007812 C 15.167969 77.957031 14.515625 77.011719 13.53125 76.640625 Z M 13.53125 76.640625 "/>
<path style=" stroke:none;fill-rule:nonzero;fill:rgb(0%,0%,0%);fill-opacity:1;" d="M 66.738281 38.109375 C 65.988281 36.160156 64.523438 34.617188 62.617188 33.769531 C 58.722656 32.039062 53.992188 33.921875 52.285156 37.761719 L 48.328125 46.921875 L 48.328125 15.410156 C 48.4375 10.058594 42.710938 6.125 37.761719 8.089844 C 37.160156 -2.421875 22.550781 -2.414062 22.125 8.089844 C 17.175781 6.125 11.453125 10.058594 11.558594 15.410156 L 11.558594 20.59375 C 6.613281 18.628906 0.882812 22.558594 0.992188 27.914062 L 0.992188 46.46875 C 0.992188 49.746094 6.058594 49.746094 6.058594 46.46875 L 6.058594 27.914062 C 6.199219 24.265625 11.421875 24.273438 11.558594 27.914062 L 11.558594 45.535156 C 11.558594 48.8125 16.625 48.8125 16.625 45.535156 C 16.625 35.496094 16.625 25.453125 16.625 15.410156 C 16.761719 11.773438 21.984375 11.761719 22.125 15.410156 L 22.125 40.054688 C 22.125 43.332031 27.195312 43.332031 27.195312 40.054688 L 27.195312 7.996094 C 27.195312 6.480469 28.425781 5.246094 29.945312 5.246094 C 31.460938 5.246094 32.695312 6.480469 32.695312 7.996094 L 32.695312 40.054688 C 32.695312 43.332031 37.761719 43.332031 37.761719 40.054688 L 37.761719 15.410156 C 37.761719 13.894531 38.996094 12.660156 40.511719 12.660156 C 42.027344 12.660156 43.261719 13.894531 43.261719 15.410156 L 43.261719 52.792969 C 35.78125 53.464844 29.929688 59.75 29.929688 67.277344 C 29.929688 70.554688 34.996094 70.554688 34.996094 67.277344 C 34.996094 60.171875 41.429688 57.550781 47.488281 57.800781 C 48.496094 57.800781 49.410156 57.199219 49.8125 56.273438 L 56.929688 39.796875 C 57.753906 38.328125 58.964844 37.863281 60.558594 38.402344 C 62.027344 39.226562 62.492188 40.433594 61.953125 42.03125 C 57.957031 51.019531 49.703125 69.417969 49.703125 69.417969 C 48.535156 72.738281 45.941406 75.4375 42.761719 76.640625 C 41.777344 77.011719 41.125 77.957031 41.125 79.007812 L 41.125 123.710938 C 41.125 125.109375 42.261719 126.242188 43.660156 126.242188 C 45.058594 126.242188 46.195312 125.109375 46.195312 123.710938 L 46.195312 80.652344 C 49.960938 78.714844 52.976562 75.292969 54.445312 71.207031 C 58.523438 62.179688 62.5625 53.140625 66.585938 44.089844 C 67.433594 42.179688 67.488281 40.058594 66.738281 38.109375 Z M 66.738281 38.109375 "/>
</g>
</svg>
