<?xml version="1.0" encoding="UTF-8"?>
<svg xmlns="http://www.w3.org/2000/svg" xmlns:xlink="http://www.w3.org/1999/xlink" width="68px" height="129px" viewBox="0 0 68 151" version="1.1">
<g id="surface1">
<path style=" stroke:none;fill-rule:nonzero;fill:rgb(100%,79.215686%,72.54902%);fill-opacity:1;" d="M 53.015625 147.628906 L 53.015625 67.335938 C 59.476562 64.902344 64.074219 58.691406 64.074219 51.40625 L 64.074219 22.441406 L 4.28125 22.441406 L 4.28125 51.40625 C 4.28125 58.691406 8.878906 64.902344 15.339844 67.335938 L 15.339844 147.628906 Z M 53.015625 147.628906 "/>
<path style=" stroke:none;fill-rule:nonzero;fill:rgb(98.039216%,73.333333%,65.490196%);fill-opacity:1;" d="M 10.695312 29.101562 C 7.152344 29.101562 4.28125 26.246094 4.28125 22.71875 L 4.28125 16.632812 C 4.28125 13.105469 7.152344 10.25 10.695312 10.25 C 14.238281 10.25 17.113281 13.105469 17.113281 16.632812 L 17.113281 22.71875 C 17.113281 26.246094 14.238281 29.101562 10.695312 29.101562 Z M 10.695312 29.101562 "/>
<path style=" stroke:none;fill-rule:nonzero;fill:rgb(98.039216%,73.333333%,65.490196%);fill-opacity:1;" d="M 23.527344 29.101562 C 19.984375 29.101562 17.113281 26.246094 17.113281 22.71875 L 17.113281 9.695312 C 17.113281 6.167969 19.984375 3.308594 23.527344 3.308594 C 27.070312 3.308594 29.945312 6.167969 29.945312 9.695312 L 29.945312 22.71875 C 29.945312 26.246094 27.070312 29.101562 23.527344 29.101562 Z M 23.527344 29.101562 "/>
<path style=" stroke:none;fill-rule:nonzero;fill:rgb(98.039216%,73.333333%,65.490196%);fill-opacity:1;" d="M 36.359375 29.101562 C 32.816406 29.101562 29.945312 26.246094 29.945312 22.71875 L 29.945312 9.695312 C 29.945312 6.167969 32.816406 3.308594 36.359375 3.308594 C 39.902344 3.308594 42.777344 6.167969 42.777344 9.695312 L 42.777344 22.71875 C 42.777344 26.246094 39.902344 29.101562 36.359375 29.101562 Z M 36.359375 29.101562 "/>
<path style=" stroke:none;fill-rule:nonzero;fill:rgb(98.039216%,73.333333%,65.490196%);fill-opacity:1;" d="M 49.191406 29.101562 C 45.648438 29.101562 42.777344 26.246094 42.777344 22.71875 L 42.777344 9.695312 C 42.777344 6.167969 45.648438 3.308594 49.191406 3.308594 C 52.738281 3.308594 55.609375 6.167969 55.609375 9.695312 L 55.609375 22.71875 C 55.609375 26.246094 52.734375 29.101562 49.191406 29.101562 Z M 49.191406 29.101562 "/>
<path style=" stroke:none;fill-rule:nonzero;fill:rgb(100%,79.215686%,72.54902%);fill-opacity:1;" d="M 64.074219 51.40625 L 64.074219 22.71875 C 64.074219 19.195312 61.203125 16.335938 57.660156 16.335938 L 36.359375 16.335938 C 32.816406 16.335938 29.945312 19.195312 29.945312 22.71875 C 29.945312 26.246094 32.816406 29.101562 36.359375 29.101562 L 51.242188 29.101562 L 51.242188 38.65625 C 45.300781 39.75 39.417969 45.328125 39.417969 53.164062 "/>
<path style=" stroke:none;fill-rule:nonzero;fill:rgb(0%,0%,0%);fill-opacity:1;" d="M 58.6875 13.332031 L 58.6875 9.691406 C 58.714844 1.503906 48.734375 -2.785156 42.777344 2.738281 C 39.3125 -0.554688 33.40625 -0.554688 29.945312 2.738281 C 24.566406 -2.257812 15.582031 0.71875 14.214844 7.863281 C 8.191406 5.332031 1.066406 10.089844 1.203125 16.632812 L 1.203125 51.40625 C 1.203125 58.980469 5.570312 65.933594 12.261719 69.324219 L 13.351562 146.378906 C 13.351562 148.070312 14.730469 149.441406 16.429688 149.441406 C 18.128906 149.441406 19.507812 148.070312 19.507812 146.378906 L 18.417969 67.335938 C 18.417969 66.0625 17.625 64.925781 16.429688 64.472656 C 11.003906 62.429688 7.355469 57.179688 7.355469 51.40625 L 7.355469 31.558594 C 10.582031 32.84375 14.683594 32 17.113281 29.671875 C 20.578125 32.96875 26.480469 32.96875 29.945312 29.671875 C 31.636719 31.21875 33.886719 32.164062 36.359375 32.164062 L 48.164062 32.164062 L 48.164062 36.335938 C 42.058594 38.554688 36.339844 44.667969 36.339844 53.164062 C 36.339844 54.855469 37.71875 56.226562 39.417969 56.226562 C 41.117188 56.226562 42.496094 54.855469 42.496094 53.164062 C 42.496094 46.808594 47.292969 42.496094 51.804688 41.667969 C 53.261719 41.398438 54.320312 40.132812 54.320312 38.65625 L 54.320312 29.101562 C 54.320312 27.410156 52.941406 26.039062 51.242188 26.039062 L 36.359375 26.039062 C 34.519531 26.039062 33.023438 24.550781 33.023438 22.71875 C 33.023438 20.886719 34.519531 19.398438 36.359375 19.398438 L 57.660156 19.398438 C 59.5 19.398438 61 20.886719 61 22.71875 L 61 51.40625 C 61 57.179688 57.351562 62.429688 51.925781 64.472656 C 50.730469 64.925781 49.9375 66.0625 49.9375 67.335938 L 51.027344 146.378906 C 51.027344 148.070312 52.40625 149.441406 54.105469 149.441406 C 55.804688 149.441406 57.183594 148.070312 57.183594 146.378906 L 56.09375 69.324219 C 62.785156 65.933594 67.152344 58.980469 67.152344 51.40625 L 67.152344 22.71875 C 67.152344 17.855469 63.441406 13.839844 58.6875 13.332031 Z M 49.191406 6.371094 C 51.035156 6.371094 52.53125 7.863281 52.53125 9.691406 L 52.53125 13.273438 L 45.855469 13.273438 L 45.855469 9.691406 C 45.855469 7.863281 47.351562 6.371094 49.191406 6.371094 Z M 10.695312 26.039062 C 8.855469 26.039062 7.355469 24.550781 7.355469 22.71875 L 7.355469 16.632812 C 7.523438 12.230469 13.867188 12.234375 14.035156 16.632812 L 14.035156 22.71875 C 14.035156 24.550781 12.539062 26.039062 10.695312 26.039062 Z M 23.527344 26.039062 C 21.6875 26.039062 20.1875 24.550781 20.1875 22.71875 L 20.1875 9.691406 C 20.359375 5.292969 26.699219 5.292969 26.867188 9.691406 L 26.867188 22.71875 C 26.867188 24.550781 25.371094 26.039062 23.527344 26.039062 Z M 33.023438 13.878906 L 33.023438 9.695312 C 33.191406 5.292969 39.53125 5.296875 39.699219 9.695312 L 39.699219 13.273438 L 36.359375 13.273438 C 35.1875 13.273438 34.0625 13.488281 33.023438 13.878906 Z M 33.023438 13.878906 "/>
</g>
</svg>
