<?xml version="1.0" encoding="UTF-8"?>
<svg xmlns="http://www.w3.org/2000/svg" xmlns:xlink="http://www.w3.org/1999/xlink" width="68px" height="129px" viewBox="0 0 68 155" version="1.1">
<g id="surface1">
<path style=" stroke:none;fill-rule:nonzero;fill:rgb(100%,79.215686%,72.54902%);fill-opacity:1;" d="M 52.757812 150.867188 L 52.757812 96.605469 C 59.335938 94.125 64.019531 87.800781 64.019531 80.382812 L 64.019531 50.882812 L 3.136719 50.882812 L 3.136719 80.382812 C 3.136719 87.800781 7.816406 94.125 14.394531 96.605469 L 14.394531 150.867188 Z M 52.757812 150.867188 "/>
<path style=" stroke:none;fill-rule:nonzero;fill:rgb(98.039216%,73.333333%,65.490196%);fill-opacity:1;" d="M 38.300781 54.203125 C 34.753906 54.855469 31.347656 52.519531 30.691406 48.992188 L 23.613281 10.796875 C 22.957031 7.265625 25.304688 3.878906 28.851562 3.226562 C 32.398438 2.574219 35.808594 4.910156 36.460938 8.441406 L 43.539062 46.632812 C 44.195312 50.164062 41.847656 53.554688 38.300781 54.203125 Z M 38.300781 54.203125 "/>
<path style=" stroke:none;fill-rule:nonzero;fill:rgb(98.039216%,73.333333%,65.490196%);fill-opacity:1;" d="M 45.878906 53.648438 C 42.410156 52.667969 40.394531 49.074219 41.378906 45.621094 L 52.035156 8.261719 C 53.019531 4.808594 56.632812 2.800781 60.101562 3.78125 C 63.574219 4.761719 65.589844 8.355469 64.605469 11.808594 L 53.949219 49.171875 C 52.964844 52.625 49.351562 54.628906 45.878906 53.648438 Z M 45.878906 53.648438 "/>
<path style=" stroke:none;fill-rule:nonzero;fill:rgb(98.039216%,73.333333%,65.490196%);fill-opacity:1;" d="M 9.667969 57.667969 C 6.058594 57.667969 3.136719 54.757812 3.136719 51.167969 L 3.136719 44.96875 C 3.136719 41.378906 6.058594 38.46875 9.667969 38.46875 C 13.277344 38.46875 16.199219 41.378906 16.199219 44.96875 L 16.199219 51.167969 C 16.199219 54.757812 13.277344 57.667969 9.667969 57.667969 Z M 9.667969 57.667969 "/>
<path style=" stroke:none;fill-rule:nonzero;fill:rgb(98.039216%,73.333333%,65.490196%);fill-opacity:1;" d="M 22.734375 57.667969 C 19.125 57.667969 16.199219 54.757812 16.199219 51.167969 L 16.199219 37.902344 C 16.199219 34.3125 19.125 31.402344 22.734375 31.402344 C 26.34375 31.402344 29.265625 34.3125 29.265625 37.902344 L 29.265625 51.167969 C 29.265625 54.757812 26.34375 57.667969 22.734375 57.667969 Z M 22.734375 57.667969 "/>
<path style=" stroke:none;fill-rule:nonzero;fill:rgb(100%,79.215686%,72.54902%);fill-opacity:1;" d="M 64.019531 80.382812 L 64.019531 51.167969 C 64.019531 47.578125 61.09375 44.667969 57.484375 44.667969 L 35.800781 44.667969 C 32.191406 44.667969 29.265625 47.578125 29.265625 51.167969 C 29.265625 54.757812 32.191406 57.667969 35.800781 57.667969 L 50.953125 57.667969 L 50.953125 67.398438 C 44.902344 68.515625 38.914062 74.195312 38.914062 82.171875 "/>
<path style=" stroke:none;fill-rule:nonzero;fill:rgb(0%,0%,0%);fill-opacity:1;" d="M 52.757812 126.066406 C 51.027344 126.066406 49.625 127.464844 49.625 129.183594 L 49.625 150.867188 C 49.765625 154.996094 55.746094 154.992188 55.890625 150.867188 L 55.890625 129.183594 C 55.890625 127.464844 54.488281 126.066406 52.757812 126.066406 Z M 52.757812 126.066406 "/>
<path style=" stroke:none;fill-rule:nonzero;fill:rgb(0%,0%,0%);fill-opacity:1;" d="M 60.957031 0.78125 C 55.917969 -0.640625 50.433594 2.449219 49.019531 7.410156 L 43.222656 27.734375 L 39.542969 7.875 C 38.578125 2.660156 33.523438 -0.800781 28.285156 0.160156 C 23.042969 1.121094 19.566406 6.148438 20.53125 11.363281 L 23.675781 28.332031 C 18.890625 27.871094 14.183594 31.335938 13.25 36.042969 C 7.117188 33.460938 -0.140625 38.304688 0.00390625 44.972656 L 0.00390625 80.382812 C 0.00390625 88.097656 4.449219 95.175781 11.261719 98.628906 L 11.261719 150.867188 C 11.261719 152.589844 12.664062 153.988281 14.398438 153.988281 C 16.128906 153.988281 17.53125 152.589844 17.53125 150.867188 L 17.53125 96.605469 C 17.53125 95.308594 16.722656 94.148438 15.503906 93.6875 C 9.980469 91.609375 6.269531 86.261719 6.269531 80.382812 L 6.269531 60.171875 C 9.554688 61.480469 13.726562 60.621094 16.199219 58.25 C 19.726562 61.605469 25.738281 61.605469 29.265625 58.25 C 30.988281 59.824219 33.28125 60.785156 35.800781 60.785156 L 47.820312 60.785156 L 47.820312 65.035156 C 41.601562 67.296875 35.78125 73.519531 35.78125 82.171875 C 35.78125 83.894531 37.183594 85.289062 38.914062 85.289062 C 40.644531 85.289062 42.046875 83.894531 42.046875 82.171875 C 42.046875 75.703125 46.929688 71.308594 51.523438 70.464844 C 53.007812 70.191406 54.085938 68.902344 54.085938 67.398438 L 54.085938 57.667969 C 54.085938 55.945312 52.683594 54.550781 50.953125 54.550781 L 35.800781 54.550781 C 31.300781 54.386719 31.289062 47.957031 35.800781 47.785156 C 43.027344 47.785156 50.257812 47.785156 57.484375 47.785156 C 59.359375 47.785156 60.886719 49.304688 60.886719 51.167969 L 60.886719 80.382812 C 60.886719 86.261719 57.171875 91.609375 51.648438 93.6875 C 50.429688 94.148438 49.625 95.308594 49.625 96.605469 L 49.625 113.113281 C 49.625 114.835938 51.027344 116.230469 52.757812 116.230469 C 54.488281 116.230469 55.890625 114.835938 55.890625 113.113281 L 55.890625 98.628906 C 62.707031 95.175781 67.152344 88.097656 67.152344 80.382812 L 67.152344 51.167969 C 67.152344 46.492188 63.777344 42.585938 59.328125 41.730469 L 67.617188 12.660156 C 69.074219 7.558594 66.085938 2.230469 60.957031 0.78125 Z M 9.667969 54.550781 C 7.792969 54.550781 6.269531 53.035156 6.269531 51.167969 L 6.269531 44.96875 C 6.441406 40.488281 12.898438 40.492188 13.066406 44.96875 L 13.066406 51.167969 C 13.066406 53.035156 11.542969 54.550781 9.667969 54.550781 Z M 26.132812 51.167969 C 25.964844 55.644531 19.503906 55.652344 19.335938 51.167969 L 19.335938 37.902344 C 19.503906 33.425781 25.960938 33.421875 26.132812 37.902344 Z M 32.398438 42.167969 L 32.398438 37.90625 C 32.398438 35.992188 31.832031 34.207031 30.859375 32.707031 L 26.695312 10.234375 C 26.355469 8.398438 27.578125 6.632812 29.421875 6.292969 C 31.265625 5.953125 33.039062 7.171875 33.378906 9.003906 L 39.414062 41.550781 L 35.800781 41.550781 C 34.601562 41.550781 33.457031 41.769531 32.398438 42.167969 Z M 61.589844 10.957031 L 52.863281 41.550781 L 45.796875 41.550781 L 55.050781 9.109375 C 55.800781 7.179688 57.203125 6.402344 59.246094 6.78125 C 61.050781 7.289062 62.101562 9.164062 61.589844 10.957031 Z M 61.589844 10.957031 "/>
</g>
</svg>
